Coordinates
version=1
nRows=24
nColumns=22
inDegrees=yes

Units are S.I. units (second, meters, Newtons, ...)
If the header above contains a line with 'inDegrees', this indicates whether rotational values are in degrees (yes) or radians (no).

endheader
time	pelvis_tilt	pelvis_list	pelvis_rotation	pelvis_tx	pelvis_ty	pelvis_tz	hip_flexion_r	hip_adduction_r	hip_rotation_r	knee_angle_r	ankle_angle_r	subtalar_angle_r	hip_flexion_l	hip_adduction_l	hip_rotation_l	knee_angle_l	ankle_angle_l	subtalar_angle_l	lumbar_extension	lumbar_bending	lumbar_rotation
      3.75000000	      1.06529631	      5.84982299	    150.46857737	      0.43932853	      0.93768387	     -0.46456960	     16.53166305	      4.88814570	      3.18363465	    -26.43068715	      9.98352627	      7.76951338	     21.41805450	     -4.43415764	     -5.44880773	    -75.01478692	      4.60650191	      5.10019551	     -5.52017563	      9.69095804	     -8.51818567
      3.76000000	      0.88665358	      5.82549453	    151.03557947	      0.43257110	      0.93884564	     -0.46729537	     15.71644058	      4.62300972	      2.70242234	    -26.17292277	     10.40205014	      7.60454373	     22.80873798	     -5.00415645	     -6.20454958	    -75.31290970	      4.61825628	      3.69138016	     -5.69581199	      9.65684239	     -8.14607828
      3.77000000	      0.70103696	      5.77197917	    151.62671801	      0.42578684	      0.93997244	     -0.46984925	     14.88954133	      4.32337942	      2.19389311	    -25.88031221	     10.83993612	      7.48019173	     24.10472207	     -5.51602396	     -6.92673418	    -75.29904592	      4.63110754	      2.56648095	     -5.86091029	      9.59116686	     -7.78971454
      3.78000000	      0.51699384	      5.70213515	    152.23374107	      0.41895818	      0.94104254	     -0.47224393	     14.05275803	      4.00804005	      1.66237907	    -25.55794093	     11.27891318	      7.38871083	     25.30626170	     -5.98982539	     -7.62394913	    -74.99202482	      4.68723488	      1.70390974	     -6.01145621	      9.51388035	     -7.44946510
      3.79000000	      0.33587645	      5.61775430	    152.85864088	      0.41208571	      0.94204825	     -0.47450284	     13.20160298	      3.68439281	      1.11913319	    -25.19971189	     11.72108911	      7.31640941	     26.41060020	     -6.42453367	     -8.28954088	    -74.40175578	      4.81171256	      1.05606318	     -6.14906393	      9.42230576	     -7.12754400
      3.80000000	      0.16665022	      5.53337432	    153.48040845	      0.40519963	      0.94295852	     -0.47665361	     12.35173341	      3.37628725	      0.57506394	    -24.82797795	     12.15487192	      7.24848870	     27.42520381	     -6.85511863	     -8.94493614	    -73.55627252	      4.96214119	      0.55300147	     -6.27830189	      9.33231580	     -6.78980913
      3.81000000	      0.01066436	      5.44996893	    154.11172238	      0.39828376	      0.94376664	     -0.47869178	     11.49766789	      3.08417452	      0.02167550	    -24.43266118	     12.58327451	      7.17570215	     28.35084342	     -7.26902237	     -9.56823419	    -72.46541034	      5.14583397	      0.16365593	     -6.39620196	      9.24403906	     -6.47022148
      3.82000000	     -0.13807745	      5.38603441	    154.74048492	      0.39135941	      0.94447444	     -0.48064374	     10.63141974	      2.82825050	     -0.52810008	    -24.02357903	     13.00165153	      7.07782845	     29.17699315	     -7.69569240	    -10.17782699	    -71.15156258	      5.30354144	     -0.22369106	     -6.52416280	      9.17038664	     -6.13899356
      3.83000000	     -0.27339495	      5.31155628	    155.38993265	      0.38440038	      0.94505309	     -0.48245777	      9.76851664	      2.57596726	     -1.08920394	    -23.59437434	     13.40637473	      6.97317648	     29.92674005	     -8.07414935	    -10.73606463	    -69.62139266	      5.47663860	     -0.49531551	     -6.63378489	      9.08690885	     -5.84949379
      3.84000000	     -0.39903890	      5.25401806	    156.03569320	      0.37742443	      0.94550799	     -0.48417803	      8.90177900	      2.35897858	     -1.64210891	    -23.16026536	     13.80455962	      6.84285889	     30.58403740	     -8.45115921	    -11.27305876	    -67.89644743	      5.61727981	     -0.75371522	     -6.74781589	      9.01839861	     -5.56210510
      3.85000000	     -0.51204422	      5.20780488	    156.67741428	      0.37044317	      0.94582357	     -0.48580177	      8.04017623	      2.17172885	     -2.18916628	    -22.72375275	     14.19338150	      6.68635547	     31.15823040	     -8.81253302	    -11.77642129	    -65.98895424	      5.72200020	     -0.98484587	     -6.86166650	      8.95910711	     -5.28368188
      3.86000000	     -0.61235371	      5.17273178	    157.31270403	      0.36344285	      0.94599653	     -0.48731755	      7.18689338	      2.01284900	     -2.72747431	    -22.29052206	     14.57466594	      6.50525993	     31.65030400	     -9.15021573	    -12.24286746	    -63.91030585	      5.79327415	     -1.18095979	     -6.97282979	      8.91192548	     -5.01746416
      3.87000000	     -0.69493611	      5.14291237	    157.94086374	      0.35642202	      0.94601332	     -0.48871590	      6.35560333	      1.87578988	     -3.26022838	    -21.87029491	     14.94716040	      6.31691418	     32.06881740	     -9.44815327	    -12.65886667	    -61.66976585	      5.83160997	     -1.32450040	     -7.07256629	      8.87469780	     -4.77121953
      3.88000000	     -0.76880493	      5.12926058	    158.56045190	      0.34936491	      0.94588699	     -0.48999149	      5.53142585	      1.76600931	     -3.78372872	    -21.46069006	     15.31759290	      6.11522090	     32.40264553	     -9.70744521	    -13.01360480	    -59.28184825	      5.84320069	     -1.43726435	     -7.17385664	      8.85434358	     -4.53706647
      3.89000000	     -0.80888682	      5.11246737	    159.18687874	      0.34223105	      0.94554713	     -0.49111667	      4.76109215	      1.66423106	     -4.34568357	    -21.09268010	     15.72217595	      5.94240715	     32.69258305	     -9.90482696	    -13.28834796	    -56.76672652	      5.85838267	     -1.49423801	     -7.23078484	      8.84666883	     -4.36604443
      3.90000000	     -0.88315610	      5.14168826	    159.82989290	      0.33498135	      0.94515695	     -0.49209468	      3.91465695	      1.60521954	     -4.88987784	    -20.69224755	     16.08162828	      5.75196320	     32.85104119	    -10.04537943	    -13.43400326	    -54.13034217	      5.83813688	     -1.55095198	     -7.33733045	      8.86965707	     -4.17388009
      3.91000000	     -0.92804623	      5.17503849	    160.51243861	      0.32757620	      0.94454903	     -0.49288490	      3.10614639	      1.55628082	     -5.50255705	    -20.32877999	     16.47936859	      5.59603600	     32.97790668	    -10.11012035	    -13.44639061	    -51.41201751	      5.85046946	     -1.58195679	     -7.39145959	      8.91332914	     -4.07332112
      3.92000000	     -0.96518399	      5.22910157	    161.23489198	      0.32001437	      0.94377000	     -0.49350823	      2.30182590	      1.53186337	     -6.16818164	    -19.99066509	     16.88815751	      5.47409814	     33.05240748	    -10.11170170	    -13.30996547	    -48.63668391	      5.89085144	     -1.60581065	     -7.42278494	      8.98045541	     -4.03070588
      3.93000000	     -1.00095024	      5.30040925	    161.99097922	      0.31230811	      0.94282936	     -0.49399868	      1.50306385	      1.53059619	     -6.87104446	    -19.68942769	     17.31013256	      5.37902890	     33.07381903	    -10.06203899	    -13.03289129	    -45.83040543	      5.97223193	     -1.63721037	     -7.43583177	      9.05742743	     -4.03419579
      3.94000000	     -1.02661005	      5.38393584	    162.75512354	      0.30452095	      0.94170955	     -0.49440818	      0.74215096	      1.55341645	     -7.58225802	    -19.45314293	     17.74784802	      5.30373543	     33.05952864	     -9.99207934	    -12.65174466	    -43.02622293	      6.09889831	     -1.68202396	     -7.42742405	      9.13432688	     -4.05675061
      3.95000000	     -1.05720621	      5.47864920	    163.50502755	      0.29668088	      0.94044976	     -0.49475507	      0.00546672	      1.59631702	     -8.26326853	    -19.27702465	     18.19624904	      5.24364420	     32.99470630	     -9.92627709	    -12.21980512	    -40.24946003	      6.27678951	     -1.75888594	     -7.42092868	      9.20682542	     -4.07227239
      3.96000000	     -1.05346434	      5.57366605	    164.22539002	      0.28883108	      0.93898997	     -0.49510719	     -0.64684895	      1.65760709	     -8.93014447	    -19.18598616	     18.67168212	      5.17706686	     32.94048374	     -9.89701648	    -11.78488045	    -37.54050645	      6.48413153	     -1.85390170	     -7.36884480	      9.26116920	     -4.06063088
      3.97000000	     -1.08846098	      5.68963821	    164.90347074	      0.28098560	      0.93749545	     -0.49545949	     -1.31219904	      1.74510775	     -9.48600677	    -19.14644830	     19.12544741	      5.12821170	     32.80560153	     -9.91948530	    -11.39351270	    -34.90357995	      6.71918806	     -2.02539480	     -7.37228658	      9.30434522	     -4.02464585
      3.98000000	     -1.10368106	      5.80511712	    165.54744711	      0.27309506	      0.93587198	     -0.49580268	     -1.92817704	      1.84066827	    -10.02348219	    -19.15600129	     19.59757834	      5.07584853	     32.68335921	    -10.00527830	    -11.12039462	    -32.39038331	      6.96211110	     -2.24155579	     -7.34635726	      9.33015623	     -3.96261298
